<svg xmlns="http://www.w3.org/2000/svg" viewBox="0 0 512 512">
  <g transform="translate(85,506) scale(0.03040,-0.03040)" fill="#e5e5e5" stroke="none">
    <path d="M5968 13880 c-15 -15 -735 -411 -1688 -929 -551 -300 -691 -377 -710 -391 -11 -9 -128 -74 -260 -145 -346 -187 -1307 -712 -1395 -762 l-75 -43 0 -2693 0 -2693 455 -245 c250 -135 775 -421 1165 -635 391 -214 764 -419 830 -454 66 -36 354 -194 640 -350 286 -157 644 -352 795 -434 l275 -149 385 210 c212 115 709 387 1105 604 396 217 837 457 980 534 143 76 337 182 430 235 296 166 1005 552 1135 618 l125 63 0 769 c0 424 -4 770 -10 770 -5 0 -142 -74 -305 -164 -162 -90 -353 -196 -425 -236 l-130 -72 -6 -293 -5 -293 -195 -109 c-106 -60 -378 -210 -604 -333 -1338 -732 -1923 -1053 -2184 -1196 l-294 -162 -276 151 c-152 84 -411 226 -576 317 -895 490 -1218 667 -1795 985 l-635 349 0 798 c0 468 8 798 18 798 10 0 292 -149 625 -332 334 -183 769 -420 967 -528 198 -107 650 -354 1006 -548 355 -193 653 -352 664 -352 10 0 156 76 324 168 168 92 594 325 946 517 352 192 795 433 984 537 l345 188 0 477 c1 262 -6 473 -14 470 -8 -4 -73 -40 -145 -79 -71 -40 -323 -179 -560 -308 -236 -130 -637 -350 -890 -490 -253 -139 -579 -318 -724 -398 l-263 -144 -227 124 c-488 267 -1565 855 -1917 1046 -204 111 -544 297 -754 412 l-384 210 0 455 c-1 250 5 455 12 455 12 0 286 -149 937 -510 143 -79 373 -205 510 -280 138 -74 300 -162 360 -196 331 -181 983 -538 1206 -658 l256 -139 134 74 c293 161 1427 782 1634 894 121 65 247 135 280 155 33 19 218 121 410 225 311 167 767 416 1475 802 l225 123 0 477 0 476 -175 -94 c-96 -52 -301 -164 -455 -249 -750 -414 -1547 -849 -1930 -1054 -82 -45 -240 -130 -350 -191 -110 -60 -344 -188 -520 -284 -176 -97 -407 -224 -513 -283 -106 -60 -201 -108 -211 -108 -23 0 -101 42 -1726 930 -720 394 -1362 744 -1425 778 -63 34 -112 69 -109 79 4 14 477 276 2174 1201 259 141 515 281 570 312 55 30 172 93 260 140 88 47 179 97 203 112 40 24 78 8 440 -191 901 -493 1151 -634 1154 -649 2 -9 -186 -119 -417 -246 -755 -413 -1110 -610 -1110 -616 0 -7 15 -16 523 -298 l313 -174 277 149 c152 81 462 250 687 373 226 124 649 356 940 515 292 159 533 292 537 295 7 7 -63 47 -417 240 -137 74 -470 257 -740 405 -269 148 -625 344 -790 434 -466 256 -923 508 -1110 611 -255 141 -252 140 -272 120z"/>
  </g>
</svg>
